<svg xmlns="http://www.w3.org/2000/svg" width="960" height="420" font-family="sans-serif">
<rect width="960" height="420" fill="white"/>
<text x="480" y="20" font-size="14" font-weight="bold" text-anchor="middle" fill="#111827">V1 vs V2 Equity — 60s expiry @80% payout (date-aligned, R multiples)</text>
<line x1="60" y1="374.0" x2="940" y2="374.0" stroke="#e5e7eb"/><text x="52" y="378.0" font-size="11" text-anchor="end" fill="#6b7280">-176R</text><line x1="60" y1="306.0" x2="940" y2="306.0" stroke="#e5e7eb"/><text x="52" y="310.0" font-size="11" text-anchor="end" fill="#6b7280">-134R</text><line x1="60" y1="238.0" x2="940" y2="238.0" stroke="#e5e7eb"/><text x="52" y="242.0" font-size="11" text-anchor="end" fill="#6b7280">-91R</text><line x1="60" y1="170.0" x2="940" y2="170.0" stroke="#e5e7eb"/><text x="52" y="174.0" font-size="11" text-anchor="end" fill="#6b7280">-48R</text><line x1="60" y1="102.0" x2="940" y2="102.0" stroke="#e5e7eb"/><text x="52" y="106.0" font-size="11" text-anchor="end" fill="#6b7280">-6R</text><line x1="60" y1="34.0" x2="940" y2="34.0" stroke="#e5e7eb"/><text x="52" y="38.0" font-size="11" text-anchor="end" fill="#6b7280">37R</text>
<line x1="60" y1="93.2" x2="940" y2="93.2" stroke="#9ca3af" stroke-dasharray="4,3"/>
<path d="M60.0,100.2 L76.9,80.8 L93.8,65.8 L110.8,84.3 L127.7,103.4 L144.6,133.0 L161.5,134.0 L178.5,144.5 L195.4,139.4 L212.3,146.1 L229.2,166.8 L246.2,163.3 L263.1,165.2 L280.0,182.0 L296.9,177.3 L313.8,171.8 L330.8,210.0 L347.7,210.7 L364.6,208.1 L381.5,205.3 L398.5,214.2 L415.4,246.3 L432.3,268.0 L449.2,265.8 L466.2,259.4 L483.1,257.5 L500.0,257.5 L516.9,261.3 L533.8,234.6 L550.8,250.8 L567.7,254.0 L584.6,273.7 L601.5,288.7 L618.5,286.1 L635.4,315.4 L652.3,327.5 L669.2,326.9 L686.2,333.3 L703.1,338.0 L720.0,345.7 L736.9,334.8 L753.8,336.8 L770.8,337.1 L787.7,333.3 L804.6,321.2 L821.5,313.5 L838.5,306.2 L855.4,307.5 L872.3,312.2 L889.2,317.3 L906.2,320.2 L923.1,317.7 L940.0,318.3" fill="none" stroke="#dc2626" stroke-width="2.5"/>
<path d="M60.0,108.2 L76.9,95.8 L93.8,97.4 L110.8,79.8 L127.7,62.3 L144.6,77.9 L161.5,78.3 L178.5,83.7 L195.4,68.7 L212.3,71.9 L229.2,85.3 L246.2,82.1 L263.1,83.7 L280.0,82.4 L296.9,68.4 L313.8,70.3 L330.8,103.4 L347.7,98.9 L364.6,98.6 L381.5,105.0 L398.5,111.4 L415.4,115.8 L432.3,117.1 L449.2,130.1 L466.2,124.7 L483.1,114.2 L500.0,95.8 L516.9,107.5 L533.8,94.8 L550.8,112.3 L567.7,112.0 L584.6,126.0 L601.5,139.7 L618.5,141.6 L635.4,156.6 L652.3,156.6 L669.2,155.0 L686.2,152.7 L703.1,140.3 L720.0,138.4 L736.9,130.1 L753.8,144.8 L770.8,145.7 L787.7,139.1 L804.6,112.3 L821.5,100.2 L838.5,93.2 L855.4,78.3 L872.3,78.3 L889.2,81.8 L906.2,74.7 L923.1,62.7 L940.0,63.9" fill="none" stroke="#16a34a" stroke-width="2.5"/>
<text x="60.0" y="396" font-size="10" text-anchor="middle" fill="#6b7280">07-12</text><text x="178.5" y="396" font-size="10" text-anchor="middle" fill="#6b7280">07-20</text><text x="296.9" y="396" font-size="10" text-anchor="middle" fill="#6b7280">07-28</text><text x="415.4" y="396" font-size="10" text-anchor="middle" fill="#6b7280">08-05</text><text x="533.8" y="396" font-size="10" text-anchor="middle" fill="#6b7280">08-13</text><text x="652.3" y="396" font-size="10" text-anchor="middle" fill="#6b7280">08-21</text><text x="770.8" y="396" font-size="10" text-anchor="middle" fill="#6b7280">08-30</text><text x="889.2" y="396" font-size="10" text-anchor="middle" fill="#6b7280">09-07</text><text x="940.0" y="396" font-size="10" text-anchor="middle" fill="#6b7280">09-10</text><text x="940" y="412" font-size="11" text-anchor="end" fill="#6b7280">date (2026)</text>
<g font-size="12" fill="#111827">
<circle cx="70" cy="40" r="5" fill="#dc2626"/><text x="80" y="44">V1 (emacombo): -141.4R, n=4301</text>
<circle cx="340" cy="40" r="5" fill="#16a34a"/><text x="350" y="44">V2 (emacombo_v2): +18.4R, n=4814</text>
</g>
</svg>